<svg width="226" height="329" viewBox="0 0 226 329" fill="none" xmlns="http://www.w3.org/2000/svg">
<path d="M60.9378 122.985C38.2967 122.985 19.9496 141.517 19.9496 164.364C19.9496 187.21 38.2967 205.742 60.9378 205.742H103.035V122.985H60.9378ZM165.062 102.871C187.703 102.871 206.05 84.3391 206.05 61.4925C206.05 38.646 187.703 20.1345 165.062 20.1345H122.965V102.871H165.062ZM226 164.364C226 198.325 198.716 225.856 165.062 225.856H163.953C148.174 225.856 133.792 219.795 122.965 209.872V266.68C122.965 301.011 95.0844 328.727 61.2049 328.727C27.6336 328.727 0 301.258 0 267.235C0 245.724 10.9507 226.781 27.5104 215.789C10.9507 204.797 0 185.875 0 164.364C0 142.853 10.9507 123.93 27.5104 112.938C10.9507 101.947 0 83.0036 0 61.4925C0 27.5309 27.2844 0 60.9378 0H165.062C198.716 0 226 27.5309 226 61.4925C226 83.0036 215.049 101.947 198.49 112.938C215.049 123.93 226 142.853 226 164.364ZM165.062 122.985H163.953C141.332 122.985 122.965 141.517 122.965 164.364C122.965 187.21 141.332 205.742 163.953 205.742H165.062C187.703 205.742 206.05 187.21 206.05 164.364C206.05 141.517 187.703 122.985 165.062 122.985ZM61.2049 308.593C84.2158 308.593 103.035 289.753 103.035 266.68V225.856H60.9378C38.2967 225.856 19.9496 244.388 19.9496 267.235C19.9496 289.999 38.5022 308.593 61.2049 308.593ZM103.035 20.1345H60.9378C38.2967 20.1345 19.9496 38.646 19.9496 61.4925C19.9496 84.3391 38.2967 102.871 60.9378 102.871H103.035V20.1345Z" fill="#FAFAFA"/>
</svg>
